<svg width="41" height="40" viewBox="0 0 41 40" fill="none" xmlns="http://www.w3.org/2000/svg">
<path d="M0.556641 8C0.556641 3.58172 4.13836 0 8.55664 0H32.5566C36.9749 0 40.5566 3.58172 40.5566 8V32C40.5566 36.4183 36.9749 40 32.5566 40H8.55664C4.13836 40 0.556641 36.4183 0.556641 32V8Z" fill="#F5821F"/>
<path d="M19.8889 8C13.078 8 7.55664 13.3727 7.55664 20.0006C7.55664 26.6297 13.078 32 19.8889 32C22.7048 32 25.2948 31.0755 27.3697 29.5256C28.6464 31.6039 32.2223 32 32.2223 32V30.0645V20.5266V20.0006C32.2223 13.3727 26.6998 8 19.8889 8ZM19.8889 26.6333C16.1154 26.6333 13.0546 23.6566 13.0546 19.9844C13.0546 16.3118 16.1154 13.3339 19.8889 13.3339C23.6624 13.3339 26.7232 16.3118 26.7232 19.9844C26.7232 23.6566 23.6624 26.6333 19.8889 26.6333Z" fill="white"/>
</svg>
