<svg width="40" height="40" viewBox="0 0 40 40" fill="none" xmlns="http://www.w3.org/2000/svg">
<g clip-path="url(#clip0_4301_7370)">
<path d="M0 8C0 3.58 3.58 0 8 0H32C36.42 0 40 3.58 40 8V32C40 36.42 36.42 40 32 40H8C3.58 40 0 36.42 0 32V8Z" fill="#005EB8"/>
<path d="M25.7024 32.1975L24.2708 29.1912C24.1754 28.9526 23.9845 28.8094 23.7459 28.8094H16.111C15.8724 28.8094 15.6815 28.9526 15.5861 29.1912L14.1545 32.1975C14.0114 32.436 14.2023 32.8655 14.5363 32.8655H25.2252C25.6547 32.8178 25.8455 32.4838 25.7024 32.1975Z" fill="white"/>
<path d="M21.7894 6.5249C21.6463 6.23859 21.3123 6 20.9782 6H18.9263C18.5923 6 18.2583 6.19087 18.1151 6.5249L6.04238 32.1974C5.89923 32.4837 6.13782 32.8654 6.47185 32.8654H10.6233C10.8619 32.8654 11.0528 32.7223 11.1482 32.5314L19.5944 14.3984C19.7375 14.1121 20.167 14.1121 20.3102 14.3984L28.8518 32.5314C28.9472 32.7223 29.1381 32.8654 29.3767 32.8654H33.5282C33.8622 32.8654 34.1008 32.5314 33.9576 32.1974L21.7894 6.5249Z" fill="white"/>
</g>
<defs>
<clipPath id="clip0_4301_7370">
<rect width="40" height="40" fill="white"/>
</clipPath>
</defs>
</svg>
