<svg width="41" height="40" viewBox="0 0 41 40" fill="none" xmlns="http://www.w3.org/2000/svg">
<path d="M0.556641 8C0.556641 3.58172 4.13836 0 8.55664 0H32.5566C36.9749 0 40.5566 3.58172 40.5566 8V32C40.5566 36.4183 36.9749 40 32.5566 40H8.55664C4.13836 40 0.556641 36.4183 0.556641 32V8Z" fill="#F05537"/>
<path d="M35 19.6091C34.7973 12.0517 28.6008 6 21.0145 6C13.2834 6 7 12.2834 7 20.0145C7 27.7456 13.2834 34.029 21.0145 34.029C26.7187 34 31.6122 30.6122 33.7839 25.7187L27.2689 24.242C25.908 26.2399 23.6205 27.5719 21.0145 27.5719C18.4664 27.5719 16.2079 26.2978 14.847 24.3868L35 19.6091ZM21.0145 12.4571C23.6205 12.4571 25.9369 13.789 27.2978 15.8159L13.515 18.9431C14.0362 15.2658 17.1923 12.4571 21.0145 12.4571Z" fill="white"/>
</svg>
