<svg width="41" height="40" viewBox="0 0 41 40" fill="none" xmlns="http://www.w3.org/2000/svg">
<path d="M0.556641 8C0.556641 3.58172 4.13836 0 8.55664 0H32.5566C36.9749 0 40.5566 3.58172 40.5566 8V32C40.5566 36.4183 36.9749 40 32.5566 40H8.55664C4.13836 40 0.556641 36.4183 0.556641 32V8Z" fill="#EBEBF0"/>
<g clip-path="url(#clip0)">
<path d="M8.26804 28.9726L9.59106 31.2578C9.86598 31.7389 10.2612 32.1169 10.7251 32.3918L15.4502 24.2131H6C6 24.7458 6.13746 25.2784 6.41237 25.7595L8.26804 28.9726Z" fill="#0066DA"/>
<path d="M21 14.591L16.2749 6.41235C15.811 6.68727 15.4158 7.06527 15.1409 7.54637L6.41237 22.6666C6.14251 23.1374 6.00036 23.6704 6 24.213H15.4502L21 14.591Z" fill="#34A853"/>
<path d="M31.2749 32.3918C31.7388 32.1169 32.134 31.7389 32.4089 31.2578L32.9588 30.3128L35.5876 25.7595C35.8625 25.2784 36 24.7458 36 24.2131H26.5491L28.5601 28.165L31.2749 32.3918Z" fill="#EB4335"/>
<path d="M21 14.5911L25.7251 6.41237C25.2612 6.13746 24.7285 6 24.1787 6H17.8213C17.2715 6 16.7388 6.15464 16.2749 6.41237L21 14.5911Z" fill="#00832D"/>
<path d="M26.5498 24.2131H15.4502L10.7251 32.3918C11.189 32.6667 11.7217 32.8042 12.2715 32.8042H29.7285C30.2784 32.8042 30.811 32.6496 31.2749 32.3918L26.5498 24.2131Z" fill="#4285F4"/>
<path d="M31.2234 15.1065L26.8591 7.54637C26.5842 7.06527 26.189 6.68727 25.7251 6.41235L21 14.591L26.5498 24.213H35.9828C35.9828 23.6804 35.8454 23.1477 35.5704 22.6666L31.2234 15.1065Z" fill="#FBBC05"/>
</g>
<defs>
<clipPath id="clip0">
<rect width="30" height="26.8041" fill="white" transform="translate(6 6)"/>
</clipPath>
</defs>
</svg>
