<svg width="41" height="40" viewBox="0 0 41 40" fill="none" xmlns="http://www.w3.org/2000/svg">
<path d="M0.556641 8C0.556641 3.58172 4.13836 0 8.55664 0H32.5566C36.9749 0 40.5566 3.58172 40.5566 8V32C40.5566 36.4183 36.9749 40 32.5566 40H8.55664C4.13836 40 0.556641 36.4183 0.556641 32V8Z" fill="#EBEBF0"/>
<path fill-rule="evenodd" clip-rule="evenodd" d="M12.4477 18.1787L17.6284 17.0553C17.6284 17.0553 14.483 16.1804 12.7756 14.8013C11.8545 14.0584 11.5808 13.1315 12.0893 11.9926C12.4421 11.2033 13.241 10.5208 14.6622 9.82988C15.1165 9.6094 17.024 8.85667 20.1027 8.448C20.1027 8.448 20.1958 8.00142 20.1931 8C20.1902 7.99861 17.0074 8.36093 15.3305 8.82156C13.6536 9.28218 11.8809 9.94504 10.2373 11.2539C8.74384 12.4462 8.53962 13.6961 8.55768 14.4713C8.56879 15.1313 8.93834 16.0371 9.48434 16.5904C10.3033 17.393 11.331 17.9439 12.4477 18.1787Z" fill="#4E84C4"/>
<path fill-rule="evenodd" clip-rule="evenodd" d="M29.0024 21.1602C29.0024 21.1602 26.1363 20.0367 24.4969 19.6154C22.8576 19.1941 21.9101 18.8599 21.9101 18.8599C21.9101 18.8599 26.378 18.1029 28.2341 17.3811C30.0902 16.6592 31.0641 16.002 30.8863 15.2128C30.639 14.0893 29.4845 13.7003 28.1396 13.5037C26.7948 13.3071 25.136 13.1891 23.7245 13.3211C23.2105 13.3689 22.0143 13.4784 22.0046 13.4854C21.9948 13.4924 21.8851 13.9404 21.8851 13.9404C22.8729 13.859 24.7651 13.7817 25.8959 13.9264C27.0074 14.0668 27.8785 14.1103 28.3272 14.849C28.5773 15.2591 28.4119 15.8054 27.4783 16.1986C26.5447 16.5918 24.1843 17.1817 21.5628 17.7771C18.9412 18.3726 14.6052 19.2952 14.6052 19.2952C14.6052 19.2952 17.588 19.8008 19.7108 20.4341C23.0326 21.4284 24.4136 22.1854 24.4136 22.1854L29.0024 21.1602Z" fill="black"/>
<path fill-rule="evenodd" clip-rule="evenodd" d="M11.0237 31.2868C15.2679 32.0577 17.8673 31.9988 18.0882 31.9988C20.7667 31.9988 23.5064 31.7432 24.8235 31.4749C27.4631 30.9399 29.918 30.0186 31.6712 28.6817C33.4245 27.3447 33.5982 26.085 33.4606 25.0978C33.2578 23.6316 30.9252 22.2441 30.9252 22.2441L26.1641 23.4547C26.1641 23.4547 27.7562 24.2439 28.4203 24.9012C29.0844 25.5584 29.5317 26.0921 29.115 27.2886C28.8107 28.1747 28.2064 28.7477 26.3253 29.6029C24.6081 30.3824 21.2933 30.9932 18.291 30.9932C17.8826 31.0087 16.5127 31.1337 11.403 30.3964L11.0237 31.2868Z" fill="#4E84C4"/>
</svg>
