<svg width="41" height="40" viewBox="0 0 41 40" fill="none" xmlns="http://www.w3.org/2000/svg">
<path d="M0.556641 8C0.556641 3.58172 4.13836 0 8.55664 0H32.5566C36.9749 0 40.5566 3.58172 40.5566 8V32C40.5566 36.4183 36.9749 40 32.5566 40H8.55664C4.13836 40 0.556641 36.4183 0.556641 32V8Z" fill="#5558AF"/>
<path d="M29.8143 16.9296C30.0296 17.1449 30.2836 17.3161 30.5641 17.4353C31.1493 17.6805 31.8086 17.6805 32.3949 17.4353C32.9603 17.1946 33.4109 16.7452 33.6505 16.1798C33.8956 15.5945 33.8956 14.9353 33.6505 14.3489C33.4098 13.7835 32.9603 13.333 32.3949 13.0934C31.8097 12.8482 31.1504 12.8482 30.5641 13.0934C29.9987 13.3341 29.5481 13.7835 29.3085 14.3489C29.0634 14.9342 29.0634 15.5934 29.3085 16.1798C29.4278 16.4592 29.6 16.7142 29.8143 16.9296ZM29.1252 19.1138V26.2043H30.3068C30.7132 26.2021 31.1173 26.1646 31.516 26.0895C31.9168 26.0188 32.3033 25.8841 32.6611 25.6897C32.999 25.5064 33.2905 25.248 33.5147 24.9366C33.7499 24.591 33.868 24.1791 33.8515 23.7606V19.1138H29.1252ZM25.2956 16.1411C25.6092 16.1433 25.9206 16.0804 26.2099 15.9567C26.7753 15.716 27.2248 15.2666 27.4644 14.7012C27.7095 14.1159 27.7095 13.4567 27.4633 12.8703C27.2226 12.3049 26.7731 11.8544 26.2077 11.6147C25.9184 11.4911 25.607 11.4281 25.2923 11.4303C24.9798 11.4281 24.6706 11.4911 24.3835 11.6147C24.1693 11.7064 24.1019 11.8257 23.8071 11.9692V15.6023C24.103 15.7469 24.1693 15.8651 24.3835 15.9567C24.6717 16.0815 24.982 16.1433 25.2956 16.1411ZM23.8071 28.0794C24.103 28.1434 24.209 28.1931 24.4188 28.2218C24.6485 28.255 24.8804 28.2715 25.1123 28.2726C25.4701 28.2704 25.8279 28.2329 26.1779 28.1578C26.5346 28.086 26.8769 27.9524 27.1883 27.7636C27.4942 27.5758 27.7515 27.3196 27.9414 27.016C28.1512 26.6615 28.2539 26.2529 28.2385 25.841V17.6363H23.8071V28.0794ZM7.55664 30.3409L22.9203 33V7L7.55664 9.65908V30.3409Z" fill="white"/>
<path d="M18.7837 14.9773L11.6932 15.4091V17.0445L14.3523 16.9374V24.5204L16.1247 24.6242V16.8678L18.7837 16.7496V14.9773Z" fill="#5558AF"/>
</svg>
