<svg width="41" height="40" viewBox="0 0 41 40" fill="none" xmlns="http://www.w3.org/2000/svg">
<path d="M0.556641 8C0.556641 3.58172 4.13836 0 8.55664 0H32.5566C36.9749 0 40.5566 3.58172 40.5566 8V32C40.5566 36.4183 36.9749 40 32.5566 40H8.55664C4.13836 40 0.556641 36.4183 0.556641 32V8Z" fill="#4A154B"/>
<g clip-path="url(#clip0)">
<path d="M12.4438 23.6614C12.4438 25.3126 11.1515 26.605 9.50023 26.605C7.84895 26.605 6.55664 25.3126 6.55664 23.6614C6.55664 22.0101 7.84895 20.7178 9.50023 20.7178H12.4438V23.6614Z" fill="#E01E5A"/>
<path d="M13.9515 23.6614C13.9515 22.0101 15.2438 20.7178 16.8951 20.7178C18.5464 20.7178 19.8387 22.0101 19.8387 23.6614V30.9844C19.8387 32.6357 18.5464 33.928 16.8951 33.928C15.2438 33.928 13.9515 32.6357 13.9515 30.9844V23.6614Z" fill="#E01E5A"/>
<path d="M16.8951 11.8872C15.2438 11.8872 13.9515 10.5949 13.9515 8.94359C13.9515 7.29231 15.2438 6 16.8951 6C18.5464 6 19.8387 7.3641 19.8387 8.94359V11.8872H16.8951Z" fill="#36C5F0"/>
<path d="M16.8951 13.395C18.5464 13.395 19.8387 14.6873 19.8387 16.3386C19.8387 17.9899 18.4746 19.2822 16.8951 19.2822H9.50023C7.84895 19.2822 6.55664 17.9899 6.55664 16.3386C6.55664 14.6873 7.84895 13.395 9.50023 13.395H16.8951Z" fill="#36C5F0"/>
<path d="M28.6694 16.3386C28.6694 14.6873 29.9617 13.395 31.613 13.395C33.2643 13.395 34.5566 14.6873 34.5566 16.3386C34.5566 17.9899 33.1925 19.2822 31.613 19.2822H28.6694L28.6694 16.3386Z" fill="#2EB67D"/>
<path d="M27.1618 16.3385C27.1618 17.9897 25.8695 19.2821 24.2182 19.2821C22.5669 19.2821 21.2746 17.9179 21.2746 16.3385V8.94359C21.2746 7.29231 22.5669 6 24.2182 6C25.8695 6 27.1618 7.29231 27.1618 8.94359V16.3385Z" fill="#2EB67D"/>
<path d="M24.2182 28.1128C25.8695 28.1128 27.1618 29.4051 27.1618 31.0564C27.1618 32.7077 25.8695 34 24.2182 34C22.5669 34 21.2746 32.7077 21.2746 31.0564V28.1128L24.2182 28.1128Z" fill="#ECB22E"/>
<path d="M24.2182 26.605C22.5669 26.605 21.2746 25.3126 21.2746 23.6614C21.2746 22.0101 22.5669 20.7178 24.2182 20.7178H31.5413C33.1925 20.7178 34.4849 22.0101 34.4849 23.6614C34.4849 25.3126 33.1925 26.605 31.5413 26.605H24.2182Z" fill="#ECB22E"/>
</g>
<defs>
<clipPath id="clip0">
<rect width="28" height="28" fill="white" transform="translate(6.55664 6)"/>
</clipPath>
</defs>
</svg>
